<svg width="27" height="29" viewBox="0 0 27 29" fill="none" xmlns="http://www.w3.org/2000/svg">
<path d="M7 12.875V8.04167C7 6.43932 7.65848 4.9026 8.83058 3.76956C10.0027 2.63653 11.5924 2 13.25 2C14.9076 2 16.4973 2.63653 17.6694 3.76956C18.8415 4.9026 19.5 6.43932 19.5 8.04167V12.875M4.5 12.875H22C23.3807 12.875 24.5 13.957 24.5 15.2917V23.75C24.5 25.0847 23.3807 26.1667 22 26.1667H4.5C3.11929 26.1667 2 25.0847 2 23.75V15.2917C2 13.957 3.11929 12.875 4.5 12.875Z" stroke="#B3B3B3" stroke-width="4" stroke-linecap="round" stroke-linejoin="round"/>
</svg>
